{"asset":{"version":"2.0","generator":"Blockbench 5.1.4 glTF exporter"},"scenes":[{"nodes":[12],"name":"blockbench_export"}],"scene":0,"nodes":[{"rotation":[-0.7071067811865475,0,0,0.7071067811865476],"translation":[0,0.03125,0.234375],"name":"cylinder","mesh":0},{"rotation":[-0.7071067811865475,0,0,0.7071067811865476],"translation":[-0.03125,0.03125,2.203125],"name":"mesh","mesh":1},{"rotation":[-0.7071067811865475,0,0,0.7071067811865476],"translation":[0.03125,0.03125,2.203125],"name":"mesh","mesh":2},{"rotation":[-0.7071067811865475,0,0,0.7071067811865476],"translation":[0.09375,0.03125,2.203125],"name":"mesh","mesh":3},{"rotation":[-0.7071067811865475,0,0,0.7071067811865476],"translation":[-0.09375,0.03125,2.203125],"name":"mesh","mesh":4},{"translation":[-0.03125,0,3.109375],"name":"mesh","mesh":5},{"rotation":[0,0,-1,6.123233995736766e-17],"translation":[0.03125,0.0625,3.109375],"name":"mesh","mesh":6},{"rotation":[0,-1,0,6.123233995736766e-17],"translation":[0.03125,0,0.296875],"name":"mesh","mesh":7},{"rotation":[1,-3.749399456654651e-33,-6.123233995736777e-17,6.123233995736766e-17],"translation":[-0.03125,0.0625,0.296875],"name":"mesh","mesh":8},{"translation":[0.03125,0,-0.265625],"name":"mesh","mesh":9},{"rotation":[0.7071067811865475,0,0,0.7071067811865476],"translation":[0,0.03125,0.21875],"name":"cylinder","mesh":10},{"rotation":[0.7071067811865475,0,0,0.7071067811865476],"translation":[0,0.03125,-0.25],"name":"cylinder","mesh":11},{"translation":[0.03125,-0.03125,-2.515625],"name":"sword","children":[0,1,2,3,4,5,6,7,8,9,10,11]}],"bufferViews":[{"buffer":0,"byteOffset":0,"byteLength":1440,"target":34962,"byteStride":12},{"buffer":0,"byteOffset":1440,"byteLength":1440,"target":34962,"byteStride":12},{"buffer":0,"byteOffset":2880,"byteLength":960,"target":34962,"byteStride":8},{"buffer":0,"byteOffset":3840,"byteLength":288,"target":34963},{"buffer":0,"byteOffset":4128,"byteLength":288,"target":34962,"byteStride":12},{"buffer":0,"byteOffset":4416,"byteLength":288,"target":34962,"byteStride":12},{"buffer":0,"byteOffset":4704,"byteLength":192,"target":34962,"byteStride":8},{"buffer":0,"byteOffset":4896,"byteLength":72,"target":34963},{"buffer":0,"byteOffset":4968,"byteLength":288,"target":34962,"byteStride":12},{"buffer":0,"byteOffset":5256,"byteLength":288,"target":34962,"byteStride":12},{"buffer":0,"byteOffset":5544,"byteLength":192,"target":34962,"byteStride":8},{"buffer":0,"byteOffset":5736,"byteLength":72,"target":34963},{"buffer":0,"byteOffset":5808,"byteLength":216,"target":34962,"byteStride":12},{"buffer":0,"byteOffset":6024,"byteLength":216,"target":34962,"byteStride":12},{"buffer":0,"byteOffset":6240,"byteLength":144,"target":34962,"byteStride":8},{"buffer":0,"byteOffset":6384,"byteLength":48,"target":34963},{"buffer":0,"byteOffset":6432,"byteLength":216,"target":34962,"byteStride":12},{"buffer":0,"byteOffset":6648,"byteLength":216,"target":34962,"byteStride":12},{"buffer":0,"byteOffset":6864,"byteLength":144,"target":34962,"byteStride":8},{"buffer":0,"byteOffset":7008,"byteLength":48,"target":34963},{"buffer":0,"byteOffset":7056,"byteLength":288,"target":34962,"byteStride":12},{"buffer":0,"byteOffset":7344,"byteLength":288,"target":34962,"byteStride":12},{"buffer":0,"byteOffset":7632,"byteLength":192,"target":34962,"byteStride":8},{"buffer":0,"byteOffset":7824,"byteLength":72,"target":34963},{"buffer":0,"byteOffset":7896,"byteLength":288,"target":34962,"byteStride":12},{"buffer":0,"byteOffset":8184,"byteLength":288,"target":34962,"byteStride":12},{"buffer":0,"byteOffset":8472,"byteLength":192,"target":34962,"byteStride":8},{"buffer":0,"byteOffset":8664,"byteLength":72,"target":34963},{"buffer":0,"byteOffset":8736,"byteLength":288,"target":34962,"byteStride":12},{"buffer":0,"byteOffset":9024,"byteLength":288,"target":34962,"byteStride":12},{"buffer":0,"byteOffset":9312,"byteLength":192,"target":34962,"byteStride":8},{"buffer":0,"byteOffset":9504,"byteLength":72,"target":34963},{"buffer":0,"byteOffset":9576,"byteLength":288,"target":34962,"byteStride":12},{"buffer":0,"byteOffset":9864,"byteLength":288,"target":34962,"byteStride":12},{"buffer":0,"byteOffset":10152,"byteLength":192,"target":34962,"byteStride":8},{"buffer":0,"byteOffset":10344,"byteLength":72,"target":34963},{"buffer":0,"byteOffset":10416,"byteLength":288,"target":34962,"byteStride":12},{"buffer":0,"byteOffset":10704,"byteLength":288,"target":34962,"byteStride":12},{"buffer":0,"byteOffset":10992,"byteLength":192,"target":34962,"byteStride":8},{"buffer":0,"byteOffset":11184,"byteLength":72,"target":34963},{"buffer":0,"byteOffset":11256,"byteLength":1440,"target":34962,"byteStride":12},{"buffer":0,"byteOffset":12696,"byteLength":1440,"target":34962,"byteStride":12},{"buffer":0,"byteOffset":14136,"byteLength":960,"target":34962,"byteStride":8},{"buffer":0,"byteOffset":15096,"byteLength":288,"target":34963},{"buffer":0,"byteOffset":15384,"byteLength":1440,"target":34962,"byteStride":12},{"buffer":0,"byteOffset":16824,"byteLength":1440,"target":34962,"byteStride":12},{"buffer":0,"byteOffset":18264,"byteLength":960,"target":34962,"byteStride":8},{"buffer":0,"byteOffset":19224,"byteLength":288,"target":34963}],"buffers":[{"byteLength":19512,"uri":"data:application/octet-stream;base64,"}],"accessors":[{"bufferView":0,"componentType":5126,"count":120,"max":[0.03125,0.4375,0.015625],"min":[-0.03125,0,-0.015625],"type":"VEC3"},{"bufferView":1,"componentType":5126,"count":120,"max":[1,1,1],"min":[-1,-1,-1],"type":"VEC3"},{"bufferView":2,"componentType":5126,"count":120,"max":[0.0040440987795591354,0.0546875],"min":[0,0],"type":"VEC2"},{"bufferView":3,"componentType":5123,"count":144,"max":[119],"min":[0],"type":"SCALAR"},{"bufferView":4,"componentType":5126,"count":24,"max":[0.03125,1.875,0.03125],"min":[-0.03125,-0.875,-0.03125],"type":"VEC3"},{"bufferView":5,"componentType":5126,"count":24,"max":[1,1,1],"min":[-1,-1,-1],"type":"VEC3"},{"bufferView":6,"componentType":5126,"count":24,"max":[0.0078125,0.234375],"min":[0,0],"type":"VEC2"},{"bufferView":7,"componentType":5123,"count":36,"max":[23],"min":[0],"type":"SCALAR"},{"bufferView":8,"componentType":5126,"count":24,"max":[0.03125,1.875,0.03125],"min":[-0.03125,-0.875,-0.03125],"type":"VEC3"},{"bufferView":9,"componentType":5126,"count":24,"max":[1,1,1],"min":[-1,-1,-1],"type":"VEC3"},{"bufferView":10,"componentType":5126,"count":24,"max":[0.0078125,0.234375],"min":[0,0],"type":"VEC2"},{"bufferView":11,"componentType":5123,"count":36,"max":[23],"min":[0],"type":"SCALAR"},{"bufferView":12,"componentType":5126,"count":18,"max":[0.03125,1.875,0.03125],"min":[-0.03125,-0.875,-0.03125],"type":"VEC3"},{"bufferView":13,"componentType":5126,"count":18,"max":[0.4472135901451111,1,0.8944271802902222],"min":[-1,-1,-0.8944271802902222],"type":"VEC3"},{"bufferView":14,"componentType":5126,"count":18,"max":[0.0078125,0.234375],"min":[0,0],"type":"VEC2"},{"bufferView":15,"componentType":5123,"count":24,"max":[17],"min":[0],"type":"SCALAR"},{"bufferView":16,"componentType":5126,"count":18,"max":[0.03125,1.875,0.03125],"min":[-0.03125,-0.875,-0.03125],"type":"VEC3"},{"bufferView":17,"componentType":5126,"count":18,"max":[1,1,0.8944271802902222],"min":[-0.4472135901451111,-1,-0.8944271802902222],"type":"VEC3"},{"bufferView":18,"componentType":5126,"count":18,"max":[0.0078125,0.234375],"min":[0,0],"type":"VEC2"},{"bufferView":19,"componentType":5123,"count":24,"max":[17],"min":[0],"type":"SCALAR"},{"bufferView":20,"componentType":5126,"count":24,"max":[0.1875,0.0625,0.03125],"min":[-0.125,0.03125,-0.03125],"type":"VEC3"},{"bufferView":21,"componentType":5126,"count":24,"max":[0.4364357888698578,1,1],"min":[-0.4364357888698578,-1,-1],"type":"VEC3"},{"bufferView":22,"componentType":5126,"count":24,"max":[0.0078125,0.0078125],"min":[0,0],"type":"VEC2"},{"bufferView":23,"componentType":5123,"count":36,"max":[23],"min":[0],"type":"SCALAR"},{"bufferView":24,"componentType":5126,"count":24,"max":[0.1875,0.0625,0.03125],"min":[-0.125,0.03125,-0.03125],"type":"VEC3"},{"bufferView":25,"componentType":5126,"count":24,"max":[0.4364357888698578,1,1],"min":[-0.4364357888698578,-1,-1],"type":"VEC3"},{"bufferView":26,"componentType":5126,"count":24,"max":[0.0078125,0.0078125],"min":[0,0],"type":"VEC2"},{"bufferView":27,"componentType":5123,"count":36,"max":[23],"min":[0],"type":"SCALAR"},{"bufferView":28,"componentType":5126,"count":24,"max":[0.1875,0.0625,0.03125],"min":[-0.125,0.03125,-0.03125],"type":"VEC3"},{"bufferView":29,"componentType":5126,"count":24,"max":[0.4364357888698578,1,1],"min":[-0.4364357888698578,-1,-1],"type":"VEC3"},{"bufferView":30,"componentType":5126,"count":24,"max":[0.0078125,0.0078125],"min":[0,0],"type":"VEC2"},{"bufferView":31,"componentType":5123,"count":36,"max":[23],"min":[0],"type":"SCALAR"},{"bufferView":32,"componentType":5126,"count":24,"max":[0.1875,0.0625,0.03125],"min":[-0.125,0.03125,-0.03125],"type":"VEC3"},{"bufferView":33,"componentType":5126,"count":24,"max":[0.4364357888698578,1,1],"min":[-0.4364357888698578,-1,-1],"type":"VEC3"},{"bufferView":34,"componentType":5126,"count":24,"max":[0.0078125,0.0078125],"min":[0,0],"type":"VEC2"},{"bufferView":35,"componentType":5123,"count":36,"max":[23],"min":[0],"type":"SCALAR"},{"bufferView":36,"componentType":5126,"count":24,"max":[0.015625,0.0625,0.03125],"min":[-0.078125,0,-0.03125],"type":"VEC3"},{"bufferView":37,"componentType":5126,"count":24,"max":[1,1,1],"min":[-1,-1,-1],"type":"VEC3"},{"bufferView":38,"componentType":5126,"count":24,"max":[0.0078125,0.0078125],"min":[0,0],"type":"VEC2"},{"bufferView":39,"componentType":5123,"count":36,"max":[23],"min":[0],"type":"SCALAR"},{"bufferView":40,"componentType":5126,"count":120,"max":[0.03125,0.046875,0.03125],"min":[-0.03125,0.015625,-0.03125],"type":"VEC3"},{"bufferView":41,"componentType":5126,"count":120,"max":[1,1,1],"min":[-1,-1,-1],"type":"VEC3"},{"bufferView":42,"componentType":5126,"count":120,"max":[0.0040440987795591354,0.0078125],"min":[0,0],"type":"VEC2"},{"bufferView":43,"componentType":5123,"count":144,"max":[119],"min":[0],"type":"SCALAR"},{"bufferView":44,"componentType":5126,"count":120,"max":[0.03125,0.046875,0.03125],"min":[-0.03125,0.015625,-0.03125],"type":"VEC3"},{"bufferView":45,"componentType":5126,"count":120,"max":[1,1,1],"min":[-1,-1,-1],"type":"VEC3"},{"bufferView":46,"componentType":5126,"count":120,"max":[0.0040440987795591354,0.0078125],"min":[0,0],"type":"VEC2"},{"bufferView":47,"componentType":5123,"count":144,"max":[119],"min":[0],"type":"SCALAR"}],"materials":[{"pbrMetallicRoughness":{"metallicFactor":0,"roughnessFactor":1},"alphaMode":"MASK","alphaCutoff":0.05,"doubleSided":true},{"pbrMetallicRoughness":{"metallicFactor":0,"roughnessFactor":1},"alphaMode":"MASK","alphaCutoff":0.05,"doubleSided":true},{"pbrMetallicRoughness":{"metallicFactor":0,"roughnessFactor":1},"alphaMode":"MASK","alphaCutoff":0.05,"doubleSided":true},{"pbrMetallicRoughness":{"metallicFactor":0,"roughnessFactor":1},"alphaMode":"MASK","alphaCutoff":0.05,"doubleSided":true}],"meshes":[{"primitives":[{"mode":4,"attributes":{"POSITION":0,"NORMAL":1,"TEXCOORD_0":2},"indices":3,"material":0}]},{"primitives":[{"mode":4,"attributes":{"POSITION":4,"NORMAL":5,"TEXCOORD_0":6},"indices":7,"material":1}]},{"primitives":[{"mode":4,"attributes":{"POSITION":8,"NORMAL":9,"TEXCOORD_0":10},"indices":11,"material":1}]},{"primitives":[{"mode":4,"attributes":{"POSITION":12,"NORMAL":13,"TEXCOORD_0":14},"indices":15,"material":1}]},{"primitives":[{"mode":4,"attributes":{"POSITION":16,"NORMAL":17,"TEXCOORD_0":18},"indices":19,"material":1}]},{"primitives":[{"mode":4,"attributes":{"POSITION":20,"NORMAL":21,"TEXCOORD_0":22},"indices":23,"material":2}]},{"primitives":[{"mode":4,"attributes":{"POSITION":24,"NORMAL":25,"TEXCOORD_0":26},"indices":27,"material":2}]},{"primitives":[{"mode":4,"attributes":{"POSITION":28,"NORMAL":29,"TEXCOORD_0":30},"indices":31,"material":2}]},{"primitives":[{"mode":4,"attributes":{"POSITION":32,"NORMAL":33,"TEXCOORD_0":34},"indices":35,"material":2}]},{"primitives":[{"mode":4,"attributes":{"POSITION":36,"NORMAL":37,"TEXCOORD_0":38},"indices":39,"material":2}]},{"primitives":[{"mode":4,"attributes":{"POSITION":40,"NORMAL":41,"TEXCOORD_0":42},"indices":43,"material":3}]},{"primitives":[{"mode":4,"attributes":{"POSITION":44,"NORMAL":45,"TEXCOORD_0":46},"indices":47,"material":3}]}]}